<svg xmlns="http://www.w3.org/2000/svg" viewBox="0 0 5.39983 5.39944"><defs><style>.cls-1{fill:#666;}</style></defs><title>Icons - All.outline.3</title><path class="cls-1" d="M4.22 5.4a2.356 2.356 0 0 1-.808-.17 5.712 5.712 0 0 1-1.926-1.316A5.732 5.732 0 0 1 .17 1.987 1.36 1.36 0 0 1 .212.565l.07-.073A1.246 1.246 0 0 1 1.14 0a1 1 0 0 1 .726.445.938.938 0 0 1 0 1.525l-.02.018a2.43 2.43 0 0 0 .686.882 4.578 4.578 0 0 0 .676.582.783.783 0 0 0 .204.103l.02-.02a.938.938 0 0 1 1.525 0 .998.998 0 0 1 .444.726 1.135 1.135 0 0 1-.475.84l-.092.088a.847.847 0 0 1-.614.21zM1.112.4A.86.86 0 0 0 .59.75l-.095.1a1.08 1.08 0 0 0 .048.996A5.327 5.327 0 0 0 1.77 3.63a5.305 5.305 0 0 0 1.783 1.225 1.125 1.125 0 0 0 .998.048l.092-.088A.846.846 0 0 0 5 4.277a.64.64 0 0 0-.296-.43c-.568-.456-.71-.315-.988-.033l-.054.055a.522.522 0 0 1-.674-.083 4.912 4.912 0 0 1-.74-.635c-.458-.456-1.03-1.1-.718-1.413l.052-.054c.286-.28.43-.42-.03-.99a.646.646 0 0 0-.43-.297h-.01z"/></svg>